<?xml version="1.0" encoding="utf-8"?>
<!-- Generator: Adobe Illustrator 26.0.3, SVG Export Plug-In . SVG Version: 6.00 Build 0)  -->
<svg version="1.1" id="layer" xmlns="http://www.w3.org/2000/svg" xmlns:xlink="http://www.w3.org/1999/xlink" x="0px" y="0px"
	 viewBox="0 0 600 173.6" enable-background="new 0 0 600 173.6" xml:space="preserve">
<path fill="#FFFFFF" d="M44.6,25.5c-2,4.3-5.6,7.8-10,9.6c-2.3,1-4.8,1.5-7.2,1.5s-4.8-0.5-7.1-1.5c-2.1-0.9-4.1-2.2-5.8-3.8
	c-1.6-1.7-2.9-3.6-3.8-5.8c-1-2.2-1.6-4.7-1.6-7.1c0-2.5,0.5-5,1.5-7.3C11.5,9,12.8,7,14.4,5.3c1.7-1.6,3.6-2.9,5.8-3.8
	c2.2-1,4.6-1.5,7.1-1.5s5,0.4,7.3,1.4c2.2,0.9,4.2,2.2,5.9,3.8c1.7,1.7,3.1,3.6,4,5.8c1.1,2.3,1.6,4.8,1.6,7.3
	C46.2,20.8,45.7,23.2,44.6,25.5"/>
<path fill="#FFFFFF" d="M472.3,78.7c-1.8-5.5-4.8-10.5-8.7-14.7c-3.9-4.2-8.7-7.4-14-9.6c-6-2.4-12.4-3.5-18.9-3.4
	c-13.7,0-33.2,3-45.4,13.6c-1.5,1.4-2.6,3.1-3.3,4.9c-0.8,1.9-1.2,4-1.2,6.1c0,2,0.4,4,1.2,5.9c0.8,1.8,1.9,3.4,3.3,4.8
	s3.1,2.4,5,3.2c1.9,0.8,3.9,1.2,6,1.2s4.2-0.4,6.1-1.2c3.7-1.6,6.7-4.5,8.4-8.1c0.9-1.8,1.3-3.9,1.3-5.9c-0.2-2.1,1.1-4,3.2-4.5
	c9.8-2.3,20.2,1,26.8,8.6c3.4,3.8,5.1,9.8,5.1,18v7.1c-11.5-0.2-23.1,1-34.3,3.5c-7.8,1.8-15.3,4.8-22.1,8.9c-4.9,3-9,7.1-11.9,12.1
	c-2.3,4.1-3.5,8.7-3.6,13.5c-0.1,4.9,0.7,9.7,2.5,14.2c1.6,3.9,4.1,7.4,7.2,10.2c3.2,2.8,7,4.9,11.1,6.1c4.6,1.4,9.3,2.1,14.1,2.1
	c3.9,0,7.9-0.3,11.7-1.1c3.4-0.7,6.8-1.7,10-3.2c3.2-1.4,6.2-3.2,9.1-5.2c3.1-2.2,6.1-4.6,9-7.2l2.6,8.5c0.4,2.1,1.6,3.9,3.4,5.1
	c2,0.9,4.2,1.3,6.4,1.2h13V97.5C475.4,91.1,474.4,84.8,472.3,78.7z M447.1,142.5c-2,2-4,3.9-6.3,5.6c-2,1.5-4.2,2.9-6.4,4
	c-2.3,1.1-4.6,1.9-7.1,2.4c-2.7,0.6-5.4,0.8-8.2,0.8c-4.2,0.2-8.3-1-11.8-3.3c-3-2.2-4.5-5.9-4.5-11c0-2.6,0.7-5.1,2.2-7.2
	c1.9-2.6,4.4-4.5,7.3-5.8c4.4-1.9,8.9-3.3,13.6-4.1c7-1.2,14.1-1.7,21.2-1.6L447.1,142.5z M600,173.6V97.2
	c0.1-6.2-0.8-12.5-2.6-18.4c-1.6-5.3-4.2-10.2-7.7-14.4c-3.5-4.1-7.8-7.3-12.7-9.5c-5.5-2.3-11.4-3.4-17.4-3.3
	c-3.8,0-7.5,0.4-11.2,1.2c-3.3,0.8-6.6,1.9-9.6,3.4s-5.9,3.2-8.6,5.3c-2.7,2.1-5.3,4.3-7.7,6.8l-1.9-9.5c-0.9-3.3-4-5.5-7.4-5.3
	h-31.6v9c0,6.8,13.1,1.9,13.1,14.2v96.9h29.6V86.7c3.6-3.7,7.8-6.8,12.4-9.2c4.3-2.2,9.2-3.4,14-3.3c6.8,0,11.9,2,15.3,6
	s5.1,9.7,5.1,17v76.4H600z M42.8,53.5H0v9.1c0,6,13.2,2.5,13.2,14.3v96.7h29.5L42.8,53.5L42.8,53.5z M175.1,173.6V97.2
	c0.1-6.2-0.8-12.5-2.6-18.4c-1.6-5.3-4.2-10.2-7.7-14.4c-3.5-4.1-7.8-7.3-12.7-9.5c-5.5-2.3-11.4-3.4-17.4-3.3
	c-3.8,0-7.5,0.4-11.2,1.2c-3.3,0.8-6.6,1.9-9.6,3.4s-5.9,3.2-8.5,5.3c-2.7,2.1-5.3,4.3-7.7,6.8l-1.9-9.5c-0.9-3.3-4-5.5-7.4-5.3
	H56.6v9c0,6.8,13.1,1.9,13.1,14.2v96.9h29.6V86.7c3.6-3.7,7.8-6.8,12.4-9.2c4.3-2.2,9.2-3.4,14.1-3.3c6.8,0,11.9,2,15.3,6
	s5.1,9.7,5.1,17v76.4H175.1z M360.6,77.8c-1.6-5.3-4.4-10.1-8-14.3c-3.6-3.9-8-7-13-8.9c-5.6-2.1-11.6-3.1-17.7-3
	c-3.8,0-7.7,0.4-11.4,1.3c-3.7,0.8-7.3,2.1-10.7,3.9c-3.4,1.8-6.5,4.2-9.2,7c-2.9,3-5.3,6.5-7,10.3c-2.1-6.3-5.9-12-10.9-16.3
	c-5.3-4.3-11.9-6.5-18.7-6.2c-3.3,0-6.7,0.4-9.9,1.2c-2.9,0.8-5.8,1.9-8.4,3.3s-5.1,3.1-7.4,5c-2.3,2-4.6,4.1-6.6,6.4l-1.9-8.9
	c-0.9-3.3-4-5.5-7.4-5.3h-29.7v10.4c0,4.9,12.9,3.8,12.9,13.1v96.8h28.2V85.7c2.9-3.4,6.3-6.2,10.1-8.5c3.5-2,7.6-3.1,11.7-3.1
	c6.3,0,11.1,1.8,14.3,5.5c3.2,3.7,4.9,9.5,4.9,17.6v76.4h29V97.2c-0.1-3.4,0.5-6.8,1.6-9.9c1.9-5.3,5.9-9.5,11.2-11.5
	c2.6-1,5.4-1.5,8.2-1.5c6.5,0,11.4,1.9,14.7,5.8c3.4,3.8,5,9.6,5,17.3v76.2h28.8V97.2C363.4,90.7,362.4,84.1,360.6,77.8"/>
</svg>
